<?xml version="1.0" standalone="no"?>
<!DOCTYPE svg PUBLIC "-//W3C//DTD SVG 20010904//EN"
 "http://www.w3.org/TR/2001/REC-SVG-20010904/DTD/svg10.dtd">
<svg version="1.0" xmlns="http://www.w3.org/2000/svg"
 width="500.000000pt" height="161.000000pt" viewBox="0 0 500.000000 161.000000"
 preserveAspectRatio="xMidYMid meet">

<g transform="translate(0.000000,161.000000) scale(0.100000,-0.100000)"
fill="#000000" stroke="none">
<path d="M1236 1513 c-3 -3 -6 -332 -6 -730 0 -636 2 -723 15 -723 13 0 15 87
15 724 0 399 -4 727 -9 730 -4 3 -11 3 -15 -1z"/>
<path d="M3705 1178 c-123 -43 -177 -190 -111 -302 56 -96 187 -130 286 -75
120 66 143 227 47 323 -60 60 -146 81 -222 54z m135 -83 c39 -20 60 -63 60
-120 0 -38 -6 -52 -34 -83 -32 -34 -39 -37 -90 -37 -49 0 -59 4 -87 31 -59 59
-49 164 19 207 34 21 94 22 132 2z"/>
<path d="M1545 1158 c-8 -37 -55 -344 -55 -362 0 -12 10 -16 40 -16 22 0 40 3
40 8 1 18 39 245 42 248 2 2 31 -55 63 -127 32 -71 63 -128 67 -127 5 2 34 58
65 126 31 67 59 122 63 122 3 0 15 -55 25 -122 20 -122 20 -123 48 -126 56 -7
56 -8 25 190 -15 100 -28 189 -28 196 0 9 -13 12 -46 10 l-46 -3 -51 -117
c-28 -64 -54 -115 -57 -113 -3 2 -28 56 -56 119 l-49 116 -42 0 c-36 0 -43 -4
-48 -22z"/>
<path d="M2060 1031 c0 -137 2 -151 23 -181 67 -100 221 -99 282 2 17 28 21
55 23 181 l4 147 -46 0 -46 0 0 -144 c0 -144 0 -145 -26 -165 -33 -26 -75 -27
-105 -2 -23 18 -24 26 -27 165 l-3 146 -40 0 -39 0 0 -149z"/>
<path d="M2480 990 c0 -104 0 -193 0 -197 0 -5 52 -9 115 -11 l115 -3 0 41 0
40 -75 0 -75 0 0 160 0 160 -40 0 -40 0 0 -190z"/>
<path d="M2690 1140 l0 -40 55 0 55 0 0 -160 0 -160 40 0 40 0 0 160 0 159 58
3 57 3 0 35 0 35 -152 3 -153 3 0 -41z"/>
<path d="M3060 979 l0 -200 38 3 37 3 3 198 2 197 -40 0 -40 0 0 -201z"/>
<path d="M3232 983 l3 -198 40 0 40 0 3 63 3 62 45 0 c99 0 154 49 154 138 0
50 -3 58 -39 93 l-39 39 -106 0 -106 0 2 -197z m186 111 c26 -18 30 -65 6 -88
-9 -10 -33 -16 -60 -16 l-44 0 0 60 0 60 38 0 c21 0 48 -7 60 -16z"/>
<path d="M4060 979 l0 -200 38 3 37 3 3 198 2 197 -40 0 -40 0 0 -201z"/>
<path d="M4232 983 l3 -198 40 0 40 0 5 120 5 119 89 -122 c83 -114 92 -122
123 -122 l33 0 0 200 0 200 -40 0 -39 0 -3 -122 -3 -122 -85 122 -85 121 -43
1 -42 0 2 -197z"/>
<path d="M4630 1140 l0 -40 55 0 55 0 0 -160 0 -160 40 0 40 0 0 160 0 160 55
0 55 0 0 40 0 40 -150 0 -150 0 0 -40z"/>
<path d="M2207 668 c-7 -5 -3 -8 10 -8 20 0 22 -6 26 -62 l3 -63 2 63 c2 55 4
62 22 62 11 0 20 4 20 8 0 10 -67 10 -83 0z"/>
<path d="M1483 605 c0 -38 2 -53 4 -32 2 20 2 52 0 70 -2 17 -4 1 -4 -38z"/>
<path d="M1547 663 c19 -4 23 -12 26 -66 l3 -62 2 62 c2 49 5 62 20 66 9 3 -3
5 -28 4 -25 0 -35 -2 -23 -4z"/>
<path d="M1694 656 c-10 -25 2 -43 33 -51 33 -8 46 -25 31 -42 -15 -18 -38
-16 -61 5 -19 16 -20 16 -8 -5 14 -27 62 -31 82 -7 18 21 1 46 -40 58 -20 6
-31 15 -31 27 0 22 38 26 59 7 11 -11 13 -10 9 2 -6 21 -66 26 -74 6z"/>
<path d="M1816 648 c-21 -30 -20 -50 5 -82 39 -50 119 -22 119 42 0 38 -28 62
-73 62 -26 0 -40 -6 -51 -22z m98 -4 c33 -33 7 -94 -41 -94 -27 0 -63 32 -63
57 0 45 71 71 104 37z"/>
<path d="M1972 608 l-2 -68 43 2 42 1 -37 4 -37 4 -4 62 -3 62 -2 -67z"/>
<path d="M2072 617 c-2 -52 0 -58 23 -69 19 -8 31 -8 50 0 23 11 25 17 23 69
l-1 58 -6 -54 c-11 -98 -71 -98 -82 0 l-6 54 -1 -58z"/>
<path d="M2323 605 c0 -38 2 -53 4 -32 2 20 2 52 0 70 -2 17 -4 1 -4 -38z"/>
<path d="M2387 652 c-26 -28 -22 -78 7 -97 72 -47 149 40 90 100 -21 21 -77
19 -97 -3z m99 -17 c33 -51 -23 -103 -82 -76 -18 8 -24 18 -24 44 0 42 15 57
57 57 24 0 37 -7 49 -25z"/>
<path d="M2542 603 l2 -68 3 59 4 58 39 -52 c22 -29 42 -55 45 -58 3 -3 4 26
3 64 l-1 69 -6 -54 -6 -54 -33 46 c-48 68 -52 67 -50 -10z"/>
<path d="M2684 655 c-10 -24 1 -38 37 -50 23 -8 34 -18 34 -31 0 -26 -44 -32
-62 -8 -7 10 -13 13 -13 8 0 -30 55 -45 78 -22 23 23 13 45 -29 61 -25 10 -39
21 -37 29 6 18 46 22 66 6 15 -12 16 -11 3 5 -16 21 -69 23 -77 2z"/>
</g>
</svg>
