<?xml version="1.0" standalone="no"?>
<!DOCTYPE svg PUBLIC "-//W3C//DTD SVG 20010904//EN"
 "http://www.w3.org/TR/2001/REC-SVG-20010904/DTD/svg10.dtd">
<svg version="1.0" xmlns="http://www.w3.org/2000/svg"
 width="2793.000000pt" height="462.000000pt" viewBox="0 0 2793.000000 462.000000"
 preserveAspectRatio="xMidYMid meet">

<g transform="translate(0.000000,462.000000) scale(0.100000,-0.100000)"
fill="black" stroke="none">
<path d="M1390 4504 c-500 -63 -925 -356 -1148 -791 -56 -111 -104 -238 -135
-363 -20 -82 -21 -113 -24 -823 l-4 -738 24 -52 c33 -73 69 -112 131 -142 151
-74 323 -19 395 126 l31 62 0 631 c0 364 4 669 10 720 45 394 352 713 745 777
93 15 275 6 360 -16 78 -22 207 -82 281 -133 67 -46 185 -164 233 -235 46 -67
95 -177 122 -272 22 -79 23 -93 28 -780 6 -686 6 -701 27 -745 27 -56 83 -113
143 -142 65 -32 188 -32 248 0 66 35 110 78 140 140 l28 57 5 710 c6 695 6
711 28 780 108 342 376 581 716 636 104 16 280 7 376 -21 298 -85 522 -309
617 -617 l27 -88 6 -705 5 -705 24 -48 c33 -66 107 -130 176 -152 147 -46 307
30 361 171 18 46 19 86 19 759 0 704 0 711 -23 815 -67 305 -197 546 -407 755
-210 210 -457 344 -748 407 -138 29 -427 32 -562 5 -347 -71 -648 -247 -866
-509 l-47 -57 -59 71 c-195 239 -521 430 -845 493 -81 16 -363 28 -438 19z"/>
<path d="M5887 4496 c-90 -32 -161 -106 -187 -191 -8 -30 -10 -232 -8 -770 4
-700 5 -733 25 -815 78 -318 239 -590 465 -789 367 -322 858 -442 1336 -326
499 121 913 517 1057 1012 55 188 57 220 56 967 -1 428 -5 702 -11 726 -21 80
-111 166 -200 190 -130 36 -276 -29 -342 -152 l-23 -43 -5 -695 c-6 -756 -5
-747 -66 -902 -75 -192 -241 -372 -429 -465 -250 -124 -540 -124 -790 0 -260
128 -448 396 -484 687 -7 51 -11 332 -11 721 l0 636 -31 61 c-17 34 -47 75
-67 92 -76 63 -198 86 -285 56z"/>
<path d="M9150 4501 c-87 -27 -155 -87 -194 -170 -21 -45 -21 -60 -24 -666 -2
-389 1 -667 8 -746 31 -363 176 -675 430 -929 208 -206 450 -336 750 -402 100
-21 125 -23 530 -23 412 0 426 1 471 21 55 26 111 80 141 137 19 35 23 58 23
132 0 106 -17 147 -88 213 -85 77 -72 75 -532 82 -457 7 -468 9 -623 81 -107
49 -190 109 -273 195 -111 116 -178 235 -222 392 -20 74 -21 100 -27 777 -5
685 -5 701 -26 745 -59 125 -218 199 -344 161z"/>
<path d="M11539 4499 c-62 -9 -118 -40 -162 -88 -78 -86 -72 -18 -72 -851 l0
-745 27 -111 c107 -447 407 -821 809 -1007 265 -124 453 -151 979 -145 293 3
307 4 355 26 198 91 240 349 79 491 -78 69 -94 71 -478 71 -375 0 -482 10
-602 55 -337 127 -554 412 -588 772 l-6 62 338 3 c332 3 338 3 382 27 61 32
107 76 138 136 22 42 27 63 27 130 0 67 -5 88 -27 130 -31 60 -77 104 -138
136 -44 24 -50 24 -382 27 l-338 3 0 323 c0 364 -3 382 -71 460 -67 76 -167
111 -270 95z"/>
<path d="M14199 4499 c-94 -14 -174 -76 -218 -169 l-26 -55 0 -1245 0 -1245
26 -55 c64 -136 208 -202 355 -161 85 23 170 112 194 202 7 24 9 482 8 1281
l-3 1243 -23 42 c-65 122 -180 182 -313 162z"/>
<path d="M16187 4500 c-654 -61 -1170 -519 -1319 -1168 l-22 -97 -3 -1456 c-4
-1452 -3 -1457 17 -1512 24 -64 80 -127 142 -158 59 -30 160 -37 226 -15 68
23 143 91 173 158 l24 53 3 768 c1 422 4 767 7 767 2 0 39 -23 82 -51 571
-373 1346 -292 1832 191 588 583 587 1518 0 2100 -304 301 -741 459 -1162 420z
m233 -591 c353 -44 641 -289 747 -636 24 -79 27 -103 27 -243 0 -140 -3 -164
-27 -243 -108 -351 -397 -595 -759 -638 -247 -29 -512 60 -695 234 -187 178
-283 397 -283 647 0 443 333 822 771 879 93 12 125 12 219 0z"/>
<path d="M19428 4500 c-54 -5 -145 -20 -203 -34 -568 -137 -990 -576 -1112
-1156 -25 -120 -25 -440 0 -560 104 -495 437 -901 891 -1086 400 -163 848
-142 1237 57 400 206 682 583 771 1031 31 160 31 396 0 556 -100 504 -441 910
-922 1100 -193 76 -442 111 -662 92z m232 -590 c372 -45 664 -300 763 -665 31
-115 31 -316 -1 -433 -88 -327 -337 -568 -668 -648 -102 -25 -286 -23 -396 4
-401 98 -678 450 -678 862 0 482 376 868 865 889 17 0 69 -4 115 -9z"/>
<path d="M21573 4500 c-90 -19 -174 -85 -212 -170 -20 -44 -21 -60 -21 -1300
l0 -1255 24 -50 c104 -219 413 -225 529 -10 l22 40 0 1275 0 1275 -27 45 c-68
115 -192 174 -315 150z"/>
<path d="M23567 4500 c-384 -36 -750 -224 -990 -509 -167 -197 -269 -407 -329
-670 -21 -93 -22 -120 -25 -807 l-4 -710 22 -59 c88 -235 419 -254 534 -30
l30 59 5 705 c6 693 6 707 28 779 48 157 112 269 218 381 188 200 470 304 737
271 192 -23 369 -105 504 -233 93 -88 151 -169 202 -279 78 -167 74 -130 81
-918 6 -775 1 -724 69 -817 20 -28 50 -51 96 -74 150 -73 316 -21 393 125 l27
51 0 730 c0 721 0 731 -23 832 -120 543 -512 968 -1032 1119 -164 48 -380 69
-543 54z"/>
<path d="M25707 4499 c-88 -14 -161 -71 -210 -163 l-22 -41 0 -730 c0 -721 0
-731 23 -832 65 -293 199 -540 407 -748 251 -251 568 -396 930 -426 179 -14
748 -7 797 11 65 23 130 81 163 145 40 77 43 184 7 256 -27 55 -83 113 -137
142 -38 21 -56 22 -445 28 -433 7 -449 9 -596 64 -102 38 -197 99 -281 179
-167 158 -263 353 -280 566 l-6 79 334 3 c324 3 335 4 380 26 56 27 113 83
142 137 32 59 31 202 -1 262 -30 57 -86 111 -141 137 -43 20 -64 21 -378 24
l-332 3 -3 332 c-3 324 -4 333 -26 379 -61 123 -191 190 -325 167z"/>
<path d="M18130 1193 c-40 -15 -40 -19 -40 -551 0 -327 4 -520 10 -532 15 -27
74 -36 105 -16 l25 16 0 529 c0 431 -2 531 -13 540 -17 14 -67 22 -87 14z"/>
<path d="M19843 1190 c-164 -35 -273 -148 -273 -284 0 -137 77 -209 300 -278
178 -56 256 -113 267 -198 11 -83 -54 -182 -144 -216 -71 -27 -185 -15 -279
30 -102 48 -133 47 -153 -5 -15 -40 6 -70 70 -102 59 -29 181 -56 260 -57 265
-2 458 205 395 424 -32 110 -105 163 -326 236 -136 45 -192 76 -220 123 -25
40 -25 68 -1 115 55 107 159 129 316 66 96 -39 125 -39 150 0 32 48 -15 100
-119 131 -62 19 -189 27 -243 15z"/>
<path d="M20840 1189 c-84 -14 -196 -74 -261 -139 -96 -95 -148 -220 -156
-376 -18 -326 178 -565 484 -590 158 -12 296 37 404 145 117 117 165 252 156
436 -12 252 -137 435 -344 504 -72 24 -205 34 -283 20z m274 -148 c111 -54
177 -160 198 -314 8 -63 8 -106 0 -164 -17 -125 -45 -187 -116 -259 -76 -77
-142 -104 -250 -104 -106 0 -164 21 -231 82 -94 86 -136 196 -137 359 0 142
34 247 108 329 74 82 150 111 275 107 74 -3 96 -8 153 -36z"/>
<path d="M21722 1190 c-12 -5 -27 -22 -32 -36 -7 -18 -10 -204 -8 -526 l3
-500 24 -19 c21 -17 42 -19 247 -19 211 0 225 1 244 20 26 26 25 62 -1 86 -19
17 -41 19 -195 22 l-174 4 0 464 0 465 -25 24 c-25 26 -45 30 -83 15z"/>
<path d="M22396 1179 l-26 -20 0 -354 c0 -365 5 -422 42 -502 45 -97 146 -174
268 -204 80 -20 261 -17 335 5 157 47 248 152 274 316 6 36 11 214 11 396 0
301 -2 334 -17 353 -26 31 -73 37 -103 13 l-25 -20 -5 -389 c-6 -433 -5 -430
-78 -494 -67 -59 -114 -74 -237 -74 -128 0 -186 20 -248 83 -71 73 -71 73 -77
502 l-5 384 -25 13 c-35 18 -53 16 -84 -8z"/>
<path d="M24380 1193 c-40 -15 -40 -19 -40 -551 0 -327 4 -520 10 -532 15 -27
74 -36 105 -16 l25 16 0 529 c0 431 -2 531 -13 540 -17 14 -67 22 -87 14z"/>
<path d="M25120 1189 c-193 -32 -356 -193 -405 -400 -19 -82 -19 -226 0 -308
64 -271 335 -443 612 -389 112 22 186 61 264 138 104 103 159 241 159 400 0
374 -274 617 -630 559z m216 -124 c185 -55 287 -257 254 -504 -21 -159 -100
-281 -218 -333 -64 -29 -190 -36 -264 -14 -96 28 -181 113 -219 221 -96 273 7
563 224 631 57 17 163 17 223 -1z"/>
<path d="M25984 1186 c-18 -14 -19 -33 -22 -535 l-3 -521 25 -25 c30 -30 65
-32 97 -6 l24 19 5 414 5 414 315 -414 c173 -227 326 -422 339 -433 33 -27 86
-25 105 3 14 20 16 88 16 539 l0 518 -27 21 c-20 16 -36 20 -58 16 -62 -13
-60 2 -65 -449 l-5 -412 -323 422 c-177 233 -331 427 -342 433 -26 14 -63 12
-86 -4z"/>
<path d="M27373 1190 c-164 -35 -273 -148 -273 -284 0 -134 84 -214 290 -275
116 -35 215 -86 247 -128 23 -30 28 -46 27 -92 -1 -89 -55 -164 -141 -197 -71
-27 -185 -15 -279 30 -100 47 -127 47 -153 -1 -35 -68 69 -132 252 -155 158
-20 286 15 381 102 120 111 138 301 39 411 -46 51 -115 86 -271 138 -137 46
-194 77 -222 124 -25 41 -25 68 0 117 32 62 81 93 154 98 52 3 75 -1 155 -33
102 -40 131 -40 156 -1 32 48 -15 100 -119 131 -62 19 -189 27 -243 15z"/>
<path d="M18420 1172 c-27 -22 -30 -66 -6 -90 14 -14 42 -18 151 -20 l135 -4
0 -473 0 -474 22 -15 c31 -22 60 -20 92 5 l26 20 0 469 0 468 136 4 c121 3
137 5 150 22 18 25 18 57 0 82 -14 18 -31 19 -349 22 -312 3 -335 2 -357 -16z"/>
<path d="M23493 1180 c-24 -10 -38 -48 -29 -78 11 -32 51 -42 176 -42 l120 0
0 -469 0 -470 27 -21 c20 -16 36 -20 58 -16 62 13 60 -8 63 506 l3 470 123 0
c140 0 169 11 169 65 0 18 -9 36 -23 47 -20 17 -48 18 -344 17 -176 0 -331 -4
-343 -9z"/>
</g>
</svg>
